{"title":"Kick-Ass 2010.DVDRiP.XViD.AC3.Optional.NORDIC.Zen_Bud","uid":5815899,"size":1490964737,"categoryP":"video","categoryS":"movies","magnet":"?xt=urn:btih:f4a0c2954e26ff8064dc503ec1e7a58eaa44c02b&amp;dn=Kick-Ass+2010.DVDRiP.XViD.AC3.Optional.NORDIC.Zen_Bud&amp;tr=udp%3A%2F%2Ftracker.openbittorrent.com%3A80&amp;tr=udp%3A%2F%2Fopen.demonii.com%3A1337&amp;tr=udp%3A%2F%2Ftracker.coppersurfer.tk%3A6969&amp;tr=udp%3A%2F%2Fexodus.desync.com%3A6969","seeders":0,"leechers":0,"uploader":"Zen_Bud","files":-1,"time":1283821504,"description":"\nComplete name                    : Kick-Ass.2010.avi\nFormat                           : AVI\nFile size                        : 1.37 GiB\nDuration                         : 1h 52mn\nOverall bit rate                 : 1 743 Kbps\n\nVideo\n\nCodec ID/Hint                    : XviD\nDuration                         : 1h 52mn\nBit rate                         : 1 284 Kbps\nWidth                            : 720 pixels\nHeight                           : 428 pixels\nDisplay aspect ratio             : 2.35:1\nStream size                      : 1.01 GiB (74%)\nWriting library                  : XviD 1.1.2 (UTC 2006-11-01)\n\nAudio\n\nFormat                           : AC-3\nDuration                         : 1h 52mn\nBit rate                         : 448 Kbps\nChannel(s)                       : 6 channels\nChannel positions                : Front: L C R, Side: L R, LFE\nSampling rate                    : 48.0 KHz\nBit depth                        : 16 bits\nStream size                      : 361 MiB (26%)\n\n\nText #1\nLanguage                         : Danish\n\nText #2\nLanguage                         : Finnish\n\nText #3\nLanguage                         : Norwegian\n\nText #4\nLanguage                         : Swedish","torrent":{"xt":"urn:btih:f4a0c2954e26ff8064dc503ec1e7a58eaa44c02b","amp;dn":"Kick-Ass+2010.DVDRiP.XViD.AC3.Optional.NORDIC.Zen_Bud","amp;tr":["udp%3A%2F%2Ftracker.openbittorrent.com%3A80","udp%3A%2F%2Fopen.demonii.com%3A1337","udp%3A%2F%2Ftracker.coppersurfer.tk%3A6969","udp%3A%2F%2Fexodus.desync.com%3A6969"],"infoHash":"f4a0c2954e26ff8064dc503ec1e7a58eaa44c02b","infoHashBuffer":{"type":"Buffer","data":[244,160,194,149,78,38,255,128,100,220,80,62,193,231,165,142,170,68,192,43]},"announce":[],"urlList":[]}}